<svg xmlns="http://www.w3.org/2000/svg" style="display:none;">

	<!-- Logo -->
	<symbol id="logo" Viewbox="0 0 345.6 93.7">
		<path fill="#7EA8AD" d="M49.3 49.9c3.4 4.9 3 10.3-4.2 11.3 0 0 6.8.1 7 .1C64 61 73.6 52.8 68.9 41.4c0 0-4-.9-4-1H52.4c-4.3.1-7.3 3.4-3.1 9.5"/><defs><path id="a" d="M45.1 40.5h25v20.9h-25z"/></defs><clipPath id="b"><use xlink:href="#a" overflow="visible"/></clipPath><g clip-path="url(#b)"><defs><path id="c" d="M49.3 49.9c3.4 4.9 3 10.3-4.2 11.3 0 0 6.8.1 7 .1C64 61 73.6 52.8 68.9 41.4c0 0-4-.9-4-1H52.4c-4.3.1-7.3 3.4-3.1 9.5"/></defs><clipPath id="d"><use xlink:href="#c" overflow="visible"/></clipPath><linearGradient id="e" gradientUnits="userSpaceOnUse" x1="140.314" y1="179.631" x2="141.314" y2="179.631" gradientTransform="scale(23.1123) rotate(8 1320 -941.884)"><stop offset="0" stop-color="#FFF"/><stop offset=".17" stop-color="#FAFAFA"/><stop offset=".371" stop-color="#ECECED"/><stop offset=".588" stop-color="#D4D5D6"/><stop offset=".814" stop-color="#B3B4B6"/><stop offset="1" stop-color="#929497"/></linearGradient><path clip-path="url(#d)" fill="url(#e)" d="M-100.1 92.2l30.9 4.5-3.6 24.4-30.8-4.4"/></g><path fill="#7EA8AD" d="M0 90.5c0 1.8 1.5 3.2 3.2 3.2h43.5c17.9 0 32.5-14.5 32.5-32.5 0-7.9-3.8-20.8-14.3-20.8 5.8 2 6 8.5 3.1 12.8-4.1 6-10.5 7.6-15.8 7.9H24c-6.7 0-11.2 2.6-12.7 5.6C9.8 69.8.3 88.8.3 88.8c-.2.6-.3 1.1-.3 1.7"/><path fill="#DD5F13" d="M36.7 43.8c-3.4-4.9-3-10.3 4.2-11.3 0 0-6.8-.1-7-.1-11.5.5-21.4 8.5-16.8 19.9 0 0 4 .9 4 1h12.6c4.1-.1 7.2-3.4 3-9.5"/><g><defs><path id="f" d="M15.9 32.4h25v20.9h-25z"/></defs><clipPath id="g"><use xlink:href="#f" overflow="visible"/></clipPath><g clip-path="url(#g)"><defs><path id="h" d="M36.7 43.8c-3.4-4.9-3-10.3 4.2-11.3 0 0-6.8-.1-7-.1-11.5.5-21.4 8.5-16.8 19.9 0 0 4 .9 4 1h12.6c4.1-.1 7.2-3.4 3-9.5"/></defs><clipPath id="i"><use xlink:href="#h" overflow="visible"/></clipPath><linearGradient id="j" gradientUnits="userSpaceOnUse" x1="150.902" y1="180.717" x2="151.902" y2="180.717" gradientTransform="rotate(45 7452.414 -2412.714) scale(25.8285)"><stop offset="0" stop-color="#929497"/><stop offset=".101" stop-color="#ABACAF"/><stop offset=".253" stop-color="#C9CACC"/><stop offset=".414" stop-color="#E1E1E2"/><stop offset=".584" stop-color="#F2F2F2"/><stop offset=".769" stop-color="#FCFCFC"/><stop offset="1" stop-color="#FFF"/></linearGradient><path clip-path="url(#i)" fill="url(#j)" d="M-61.9 61.4l24.7 24.7-24.7 24.7-24.6-24.7"/></g><path fill="#DD5F13" d="M86 3.2C86 1.4 84.5 0 82.7 0H39.3C21.3 0 6.8 14.5 6.8 32.5c0 7.9 3.8 20.8 14.3 20.8-5.8-2-6-8.5-3.1-12.8 4.1-6 10.5-7.6 15.8-7.9H61.9c6.7 0 11.2-2.6 12.7-5.6 1.5-3.1 11-22.1 11-22.1.2-.6.4-1.1.4-1.7"/><path fill="#9C9EA1" d="M108.3 37.7c-.2-2.6-1.9-3.9-4.7-3.9-3.2 0-5.1 3.3-5.1 7.2s2 7.3 5.1 7.3c2.7 0 4.5-1.6 4.7-4h2.2c-.5 3.9-2.8 5.9-6.7 5.9-5.1 0-7.5-4.4-7.5-9.1S98.9 32 104 32c3.5 0 6.4 2.1 6.6 5.8l-2.3-.1zM129.6 41c0 4.5-2.5 9.1-8 9.1s-8-4.6-8-9.1 2.5-9.1 8-9.1 8 4.6 8 9.1m-8-7.2c-4.1 0-5.8 4-5.8 7.2s1.6 7.2 5.8 7.2c4.1 0 5.8-4 5.8-7.2 0-3.1-1.7-7.2-5.8-7.2M136 35c1.3-2.1 3.2-3 5.4-3 2.7 0 4.8 1.5 5.6 3.8 1.3-2 3.3-3.8 5.9-3.8 5.6 0 6.1 5 6.1 7v10.8h-2V38.5c0-3-1.7-4.7-4.5-4.7-3.4 0-4.9 2.8-4.9 5.9v9.9h-2.1V38.5c0-3-1.7-4.7-4.5-4.7-3.4 0-4.9 2.8-4.9 5.9v9.9H134V36.3c0-1.3-.1-2.7-.2-3.9h2.1l.1 2.6zM166.4 35c1.3-2.1 3.2-3 5.4-3 2.7 0 4.8 1.5 5.6 3.8 1.3-2 3.3-3.8 5.9-3.8 5.6 0 6.1 5 6.1 7v10.8h-2.1V38.5c0-3-1.7-4.7-4.5-4.7-3.4 0-4.9 2.8-4.9 5.9v9.9h-2.1V38.5c0-3-1.7-4.7-4.5-4.7-3.4 0-4.9 2.8-4.9 5.9v9.9h-2.1V36.3c0-1.3-.1-2.7-.2-3.9h2.1l.2 2.6zM196.1 41.5c.1 3.7 1.7 6.8 6 6.8 2.4 0 4.5-1.7 5-4.1h2.2c-1.1 4.1-3.6 6-7.8 6-5.1 0-7.5-4.4-7.5-9.1s2.6-9.1 7.7-9.1c5.8 0 7.8 4.2 7.8 9.6l-13.4-.1zm11.1-1.9c-.2-3.3-2-5.8-5.6-5.8-3.4 0-5.1 2.8-5.4 5.8h11zM216 49.6h-2.1V36.3c0-1.3-.1-2.7-.2-3.9h2.1l.2 2.6h.1c.6-1.7 2.2-3 3.9-3h2.1v2c-.4 0-.9-.1-1.3-.1-3 0-4.7 2.2-4.7 5.5v10.2h-.1zM235.8 37.7c-.2-2.6-1.9-3.9-4.7-3.9-3.2 0-5.1 3.3-5.1 7.2s2 7.3 5.1 7.3c2.7 0 4.5-1.6 4.7-4h2.2c-.5 3.9-2.8 5.9-6.7 5.9-5.1 0-7.5-4.4-7.5-9.1s2.6-9.1 7.7-9.1c3.5 0 6.4 2.1 6.6 5.8l-2.3-.1zM243.5 41.5c.1 3.7 1.7 6.8 6 6.8 2.4 0 4.5-1.7 5-4.1h2.2c-1.1 4.1-3.6 6-7.8 6-5.1 0-7.5-4.4-7.5-9.1s2.6-9.1 7.7-9.1c5.8 0 7.8 4.2 7.8 9.6l-13.4-.1zm11.1-1.9c-.2-3.3-2-5.8-5.6-5.8-3.4 0-5.1 2.8-5.4 5.8h11z"/><path fill="#DD5F13" d="M274.9 34.5l-3 3c-1.2-1.2-2.3-1.8-3.3-1.8-.5 0-1 .1-1.3.3s-.5.5-.5.8.1.5.3.7c.2.2.7.5 1.4.9l1.7.9c1.8.9 3.1 1.8 3.8 2.8.7.9 1 2 1 3.3 0 1.7-.6 3.1-1.9 4.2-1.2 1.1-2.9 1.7-5 1.7-2.8 0-5-1.1-6.6-3.2l2.9-3.2c.6.7 1.2 1.2 2 1.6.8.4 1.4.6 2 .6s1.1-.1 1.5-.5c.4-.3.6-.7.6-1 0-.7-.7-1.4-2.1-2.1l-1.6-.8c-3.1-1.5-4.6-3.5-4.6-5.8 0-1.5.6-2.8 1.7-3.8 1.2-1.1 2.6-1.6 4.4-1.6 1.2 0 2.4.3 3.5.8 1.4.4 2.3 1.2 3.1 2.2M276.9 31.8h4.8l5 11.9 5.4-11.9h4.9l-11.9 26h-4.9l3.9-8.4M299.7 31.8h4.8v1.9c1.1-.9 2.1-1.5 2.9-1.9.9-.4 1.8-.5 2.7-.5 1.9 0 3.5.7 4.8 2 1.1 1.1 1.7 2.8 1.7 5v12.6h-4.7v-8.3c0-2.3-.1-3.8-.3-4.5-.2-.7-.6-1.3-1.1-1.7s-1.1-.6-1.9-.6c-1 0-1.8.3-2.5 1-.7.6-1.2 1.5-1.4 2.7-.1.6-.2 1.9-.2 3.9V51h-4.8V31.8zM339.8 35.7l-4 2.2c-.7-.8-1.5-1.3-2.2-1.6s-1.6-.5-2.6-.5c-1.8 0-3.2.5-4.3 1.6-1.1 1.1-1.7 2.4-1.7 4.1 0 1.6.5 2.9 1.6 4 1.1 1 2.5 1.5 4.2 1.5 2.1 0 3.8-.7 5-2.2l3.8 2.6c-2 2.6-4.9 4-8.6 4-3.3 0-6-1-7.8-3-1.9-2-2.8-4.3-2.8-6.9 0-1.8.5-3.5 1.4-5.1.9-1.5 2.2-2.8 3.8-3.6 1.6-.9 3.5-1.3 5.5-1.3 1.9 0 3.6.4 5.1 1.1 1.4.6 2.6 1.7 3.6 3.1"/><g><path fill="#9C9EA1" d="M345.6 33.7c0 .7-.2 1.2-.7 1.7s-1 .7-1.7.7-1.2-.2-1.7-.7-.7-1-.7-1.7.2-1.2.7-1.7 1-.7 1.7-.7c.6 0 1.2.2 1.7.7s.7 1.1.7 1.7zm-.4 0c0-.5-.2-1-.6-1.4-.4-.4-.8-.6-1.4-.6-.5 0-1 .2-1.4.6-.4.4-.6.9-.6 1.4 0 .6.2 1 .6 1.4s.8.6 1.4.6c.5 0 1-.2 1.4-.6.4-.4.6-.8.6-1.4zm-.8 1.4h-.6l-.4-1.1h-.7v1.1h-.6v-2.7h1.3c.3 0 .6.1.8.2.2.2.3.3.3.6s-.2.6-.5.7l.4 1.2zm-1.7-1.6h.6c.3 0 .5-.1.5-.4 0-.2-.2-.4-.5-.4h-.6v.8z"/></g></g>
	</symbol>

</svg>